<?xml version="1.0" encoding="UTF-8" standalone="no"?>
<svg
   version="1.1"
   width="13.398438"
   height="13.398438"
   viewBox="0 0 13.398437 13.398437"
   id="svg51"
   sodipodi:docname="icon-minimal.svg"
   inkscape:version="1.1.2 (0a00cf5339, 2022-02-04)"
   xmlns:inkscape="http://www.inkscape.org/namespaces/inkscape"
   xmlns:sodipodi="http://sodipodi.sourceforge.net/DTD/sodipodi-0.dtd"
   xmlns="http://www.w3.org/2000/svg"
   xmlns:svg="http://www.w3.org/2000/svg">
  <defs
     id="defs55" />
  <sodipodi:namedview
     id="namedview53"
     pagecolor="#ffffff"
     bordercolor="#666666"
     borderopacity="1.0"
     inkscape:pageshadow="2"
     inkscape:pageopacity="0.0"
     inkscape:pagecheckerboard="true"
     showgrid="false"
     fit-margin-top="1"
     fit-margin-left="1"
     fit-margin-right="1"
     fit-margin-bottom="1"
     borderlayer="false"
     inkscape:zoom="49.75"
     inkscape:cx="-0.21105528"
     inkscape:cy="6.7135678"
     inkscape:window-width="2560"
     inkscape:window-height="1403"
     inkscape:window-x="0"
     inkscape:window-y="0"
     inkscape:window-maximized="1"
     inkscape:current-layer="svg51" />
  <path
     id="path49"
     d="M 2.5,1 1,2.5 2.5,4 C 2.000002,4.6999998 1.6992188,5.6992188 1.6992188,6.6992188 c 0,1 0.3007812,2.000781 0.8007812,2.800781 L 1,11 l 1.5,1.398438 1.5,-1.5 c 0.6999998,0.5 1.6992188,0.800781 2.6992188,0.800781 1,0 2.000781,-0.300781 2.800781,-0.800781 L 11,12.398438 12.398438,11 l -1.5,-1.5000002 c 0.5,-0.8 0.800781,-1.800781 0.800781,-2.800781 0,-1 -0.300781,-2.0007812 -0.800781,-2.8007812 l 1.5,-1.5 L 11,1 9.4999998,2.5 c -0.8,-0.4999999 -1.800781,-0.8007812 -2.800781,-0.8007812 -1,0 -2.0007812,0.3007812 -2.8007812,0.8007812 z m 4.1992188,2.6992188 c 1.7,0 3,1.3 3,3 0,1.7 -1.3,3 -3,3 -1.7,0 -3,-1.3 -3,-3 0,-1.7 1.3,-3 3,-3 z m 0,1 c -1.1,0 -2,0.9 -2,2 0,1.1 0.9,2 2,2 1.1,0 2,-0.9 2,-2 0,-1.1 -0.9,-2 -2,-2 z" />
</svg>
