<svg width="220" height="221" viewBox="0 0 220 221" fill="none" xmlns="http://www.w3.org/2000/svg">
<path d="M132.773 38.9919C138.25 48.2931 140.738 56.4414 141.644 67.5758C142.813 81.8128 140.09 93.9191 132.997 106.084C129.793 111.591 121.205 121.342 112.658 129.255C96.3572 144.311 88.6415 161.567 90.1685 179.563C90.4095 182.863 90.5556 185.507 90.4715 185.436C89.967 185.01 85.4708 176.68 84.3937 174.115C78.8955 161.339 77.3844 145.373 80.4202 132.811C83.9566 117.862 91.3743 106.764 108.059 91.1681C124.715 75.6921 132.346 58.3646 130.574 40.2334L130.107 34.7262C130.147 34.6785 131.357 36.5727 132.773 38.9919Z" fill="url(#paint0_linear_54795_32681)"/>
<path d="M152.502 73.8576C157.979 83.1588 160.467 91.3072 161.373 102.442C162.542 116.679 159.819 128.785 152.726 140.949C149.522 146.456 140.934 156.208 132.387 164.121C116.086 179.176 108.371 196.433 109.897 214.429C110.139 217.729 110.285 220.372 110.2 220.301C109.696 219.876 105.2 211.546 104.123 208.981C98.6245 196.205 97.1134 180.239 100.149 167.677C103.686 152.728 111.103 141.63 127.788 126.034C144.444 110.558 152.075 93.2303 150.303 75.0991L149.836 69.5919C149.876 69.5442 151.086 71.4384 152.502 73.8576Z" fill="url(#paint1_linear_54795_32681)"/>
<path d="M113.355 4.57151C118.831 13.8727 121.32 22.021 122.225 33.1554C123.394 47.3924 120.672 59.4987 113.579 71.6633C110.374 77.1701 101.787 86.9216 93.2396 94.8348C76.9387 109.89 69.223 127.147 70.75 145.143C70.991 148.442 71.1371 151.086 71.053 151.015C70.5485 150.59 66.0523 142.26 64.9752 139.695C59.477 126.919 57.966 110.953 61.0017 98.3907C64.5381 83.4419 71.9558 72.3435 88.6407 56.7477C105.297 41.2717 112.928 23.9441 111.155 5.81297L110.688 0.305772C110.728 0.258069 111.939 2.15228 113.355 4.57151Z" fill="url(#paint2_linear_54795_32681)"/>
<defs>
<linearGradient id="paint0_linear_54795_32681" x1="64.9129" y1="163.875" x2="155.671" y2="56.2867" gradientUnits="userSpaceOnUse">
<stop stop-color="#D0BCFF"/>
<stop offset="1" stop-color="#EFB8C8"/>
</linearGradient>
<linearGradient id="paint1_linear_54795_32681" x1="84.6419" y1="198.741" x2="175.4" y2="91.1524" gradientUnits="userSpaceOnUse">
<stop stop-color="#D0BCFF"/>
<stop offset="1" stop-color="#EFB8C8"/>
</linearGradient>
<linearGradient id="paint2_linear_54795_32681" x1="45.4944" y1="129.455" x2="136.253" y2="21.8663" gradientUnits="userSpaceOnUse">
<stop stop-color="#D0BCFF"/>
<stop offset="1" stop-color="#EFB8C8"/>
</linearGradient>
</defs>
</svg>
