<svg width="678" height="260" viewBox="0 0 678 260" fill="none" xmlns="http://www.w3.org/2000/svg">
  <path
    d="M132.773 58.9912C138.25 68.2924 140.738 76.4407 141.644 87.5751C142.813 101.812 140.09 113.918 132.997 126.083C129.793 131.59 121.205 141.341 112.658 149.254C96.3571 164.31 88.6414 181.566 90.1684 199.562C90.4094 202.862 90.5555 205.506 90.4714 205.435C89.9669 205.009 85.4707 196.679 84.3936 194.115C78.8954 181.339 77.3844 165.373 80.4201 152.81C83.9565 137.862 91.3742 126.763 108.059 111.167C124.715 95.6913 132.346 78.3638 130.574 60.2326L130.106 54.7255C130.147 54.6777 131.357 56.572 132.773 58.9912Z"
    fill="url(#paint0_linear_54549_11501)" />
  <path
    d="M152.502 93.8569C157.979 103.158 160.467 111.306 161.373 122.441C162.542 136.678 159.819 148.784 152.726 160.949C149.522 166.456 140.934 176.207 132.387 184.12C116.086 199.176 108.37 216.432 109.897 234.428C110.138 237.728 110.284 240.372 110.2 240.301C109.696 239.875 105.2 231.545 104.123 228.98C98.6243 216.204 97.1133 200.238 100.149 187.676C103.685 172.727 111.103 161.629 127.788 146.033C144.444 130.557 152.075 113.23 150.302 95.0984L149.835 89.5912C149.876 89.5435 151.086 91.4377 152.502 93.8569Z"
    fill="url(#paint1_linear_54549_11501)" />
  <path
    d="M113.355 24.5708C118.832 33.8719 121.32 42.0203 122.226 53.1547C123.394 67.3916 120.672 79.498 113.579 91.6625C110.374 97.1694 101.787 106.921 93.2397 114.834C76.9388 129.889 69.2232 147.146 70.7501 165.142C70.9912 168.442 71.1372 171.085 71.0531 171.015C70.5486 170.589 66.0525 162.259 64.9754 159.694C59.4771 146.918 57.9661 130.952 61.0018 118.39C64.5382 103.441 71.9559 92.3427 88.6408 76.747C105.297 61.2709 112.928 43.9434 111.155 25.8122L110.688 20.305C110.728 20.2573 111.939 22.1515 113.355 24.5708Z"
    fill="url(#paint2_linear_54549_11501)" />
  <path
    d="M250.217 173.268H301.76V184H235.93L235.793 174.156L285.354 95.2695H236.682V84.4688H299.777L299.914 94.1074L250.217 173.268ZM372.58 184C372.079 183.043 371.669 181.858 371.35 180.445C371.076 178.987 370.871 177.483 370.734 175.934C369.458 177.21 368.023 178.417 366.428 179.557C364.878 180.696 363.169 181.699 361.301 182.564C359.387 183.43 357.359 184.114 355.217 184.615C353.075 185.117 350.796 185.367 348.381 185.367C344.462 185.367 340.907 184.798 337.717 183.658C334.572 182.519 331.906 180.969 329.719 179.01C327.486 177.096 325.754 174.817 324.523 172.174C323.339 169.485 322.746 166.591 322.746 163.492C322.746 159.436 323.544 155.882 325.139 152.828C326.779 149.775 329.081 147.223 332.043 145.172C335.005 143.167 338.56 141.663 342.707 140.66C346.9 139.658 351.571 139.156 356.721 139.156H370.529V133.346C370.529 131.113 370.119 129.107 369.299 127.33C368.479 125.553 367.316 124.026 365.812 122.75C364.309 121.52 362.463 120.562 360.275 119.879C358.133 119.195 355.718 118.854 353.029 118.854C350.523 118.854 348.267 119.173 346.262 119.811C344.302 120.449 342.639 121.292 341.271 122.34C339.904 123.388 338.833 124.641 338.059 126.1C337.329 127.512 336.965 128.993 336.965 130.543H324.25C324.296 127.854 324.979 125.211 326.301 122.613C327.668 120.016 329.628 117.669 332.18 115.572C334.686 113.521 337.74 111.858 341.34 110.582C344.986 109.306 349.11 108.668 353.713 108.668C357.906 108.668 361.802 109.192 365.402 110.24C369.003 111.243 372.124 112.77 374.768 114.82C377.365 116.917 379.416 119.514 380.92 122.613C382.424 125.712 383.176 129.335 383.176 133.482V167.867C383.176 170.328 383.404 172.949 383.859 175.729C384.315 178.463 384.953 180.855 385.773 182.906V184H372.58ZM350.227 174.361C352.688 174.361 354.989 174.042 357.131 173.404C359.273 172.766 361.232 171.923 363.01 170.875C364.742 169.827 366.245 168.642 367.521 167.32C368.798 165.953 369.8 164.54 370.529 163.082V148.111H358.771C354.396 148.111 350.568 148.499 347.287 149.273C344.051 150.003 341.477 151.142 339.562 152.691C338.195 153.785 337.147 155.084 336.418 156.588C335.734 158.092 335.393 159.801 335.393 161.715C335.393 163.538 335.689 165.224 336.281 166.773C336.919 168.323 337.854 169.645 339.084 170.738C340.314 171.878 341.864 172.766 343.732 173.404C345.601 174.042 347.766 174.361 350.227 174.361ZM410.041 79H447.844V173.062H471.975V184H410.041V173.062H435.197V90.0059H410.041V79ZM494.123 79H531.926V173.062H556.057V184H494.123V173.062H519.279V90.0059H494.123V79ZM572.668 146.334C572.668 141.002 573.443 136.057 574.992 131.5C576.542 126.897 578.775 122.91 581.691 119.537C584.562 116.165 588.072 113.521 592.219 111.607C596.366 109.648 601.037 108.668 606.232 108.668C611.473 108.668 616.167 109.648 620.314 111.607C624.507 113.521 628.062 116.165 630.979 119.537C633.85 122.91 636.06 126.897 637.609 131.5C639.159 136.057 639.934 141.002 639.934 146.334V147.838C639.934 153.17 639.159 158.115 637.609 162.672C636.06 167.229 633.85 171.194 630.979 174.566C628.062 177.939 624.53 180.582 620.383 182.496C616.236 184.41 611.564 185.367 606.369 185.367C601.128 185.367 596.411 184.41 592.219 182.496C588.072 180.582 584.562 177.939 581.691 174.566C578.775 171.194 576.542 167.229 574.992 162.672C573.443 158.115 572.668 153.17 572.668 147.838V146.334ZM585.314 147.838C585.314 151.484 585.747 154.97 586.613 158.297C587.479 161.578 588.801 164.472 590.578 166.979C592.31 169.485 594.497 171.467 597.141 172.926C599.784 174.384 602.86 175.113 606.369 175.113C609.833 175.113 612.863 174.384 615.461 172.926C618.104 171.467 620.314 169.485 622.092 166.979C623.824 164.472 625.122 161.578 625.988 158.297C626.854 154.97 627.287 151.484 627.287 147.838V146.334C627.287 142.734 626.831 139.293 625.92 136.012C625.054 132.685 623.755 129.768 622.023 127.262C620.246 124.755 618.036 122.773 615.393 121.314C612.795 119.811 609.742 119.059 606.232 119.059C602.723 119.059 599.67 119.811 597.072 121.314C594.475 122.773 592.31 124.755 590.578 127.262C588.801 129.768 587.479 132.685 586.613 136.012C585.747 139.293 585.314 142.734 585.314 146.334V147.838Z"
    fill="#E6E0E9" />
  <defs>
    <linearGradient id="paint0_linear_54549_11501" x1="64.9128" y1="183.874" x2="155.671" y2="76.2859"
      gradientUnits="userSpaceOnUse">
      <stop stop-color="#D0BCFF" />
      <stop offset="1" stop-color="#EFB8C8" />
    </linearGradient>
    <linearGradient id="paint1_linear_54549_11501" x1="84.6417" y1="218.74" x2="175.4" y2="111.152"
      gradientUnits="userSpaceOnUse">
      <stop stop-color="#D0BCFF" />
      <stop offset="1" stop-color="#EFB8C8" />
    </linearGradient>
    <linearGradient id="paint2_linear_54549_11501" x1="45.4945" y1="149.454" x2="136.253" y2="41.8655"
      gradientUnits="userSpaceOnUse">
      <stop stop-color="#D0BCFF" />
      <stop offset="1" stop-color="#EFB8C8" />
    </linearGradient>
  </defs>
</svg>