<svg xmlns="http://www.w3.org/2000/svg" xml:space="preserve" viewBox="0 0 24 24" width="100%" height="100%">
  <path d="m 21.1452,8.182418 c -0.1392,0.108011 -2.5968,1.492949 -2.5968,4.572458 0,3.561956 3.1272,4.822082 3.2208,4.853285 -0.0144,0.07681 -0.4968,1.725772 -1.6488,3.40594 -1.0272,1.478548 -2.1,2.954696 -3.732,2.954696 -1.632,0 -2.052,-0.948095 -3.936,-0.948095 C 10.6164,23.020702 9.9636,24 8.4708,24 6.978,24 5.9364,22.631863 4.7388,20.951695 3.3516,18.978698 2.2308,15.913591 2.2308,13.004501 c 0,-4.666067 3.0336,-7.140715 6.0192,-7.140715 1.5864,0 2.9088,1.041704 3.9048,1.041704 0.948,0 2.4264,-1.10411 4.2312,-1.10411 0.684,0 3.1416,0.06241 4.7592,2.381038 z M 15.5292,3.825983 C 16.2756,2.940294 16.8036,1.711371 16.8036,0.482448 16.8036,0.312031 16.7892,0.139214 16.758,0 c -1.2144,0.04561 -2.6592,0.808881 -3.5304,1.819382 -0.684,0.777678 -1.3224,2.006601 -1.3224,3.252325 0,0.187219 0.0312,0.374438 0.0456,0.434444 0.0768,0.0144 0.2016,0.0312 0.3264,0.0312 1.0896,0 2.46,-0.729673 3.252,-1.711371 z" />
</svg>
