<?xml version="1.0" encoding="UTF-8" standalone="no"?>
<svg
   fill="currentColor"
   viewBox="0 0 96 96"
   version="1.1"
   id="svg6"
   xmlns="http://www.w3.org/2000/svg"
   xmlns:svg="http://www.w3.org/2000/svg">
  <g
     id="g172"
     transform="translate(-0.15052,-0.15069313)">
    <path
       fill="#000000"
       d="M 45.411574,1.723658 20.1638,45.004499 a 3.1712997,3.1712997 0 0 0 1.165981,4.352081 l 25.247774,14.426242 a 3.1712997,3.1712997 0 0 0 3.14593,0 L 74.971259,49.35658 A 3.1712997,3.1712997 0 0 0 76.13724,45.004499 L 50.888409,1.723658 c -1.223065,-2.09728633 -4.254827,-2.09728633 -5.477892,0 z"
       id="path2"
       style="stroke-width:1.0571" />
    <path
       fill="#000000"
       d="m 21.256841,60.090372 24.295328,34.707762 c 1.263234,1.803412 3.933468,1.803412 5.196703,0 l 24.29427,-34.708819 c 0.646945,-0.923905 -0.410155,-2.082487 -1.390087,-1.523281 l -24.97927,14.272963 a 1.0570999,1.0570999 0 0 1 -1.048644,0 L 22.645871,58.566034 c -0.979932,-0.560263 -2.037032,0.599376 -1.390087,1.524338 z"
       id="path4"
       style="stroke-width:1.0571" />
  </g>
</svg>
