<svg width="325" height="104" viewBox="0 0 325 104" fill="none" xmlns="http://www.w3.org/2000/svg">
<g clip-path="url(#clip0_53727_32252)">
<path d="M256.035 80.9229C250.102 75.5612 247.038 68.7874 245.934 61.0784C245.518 58.1812 245.261 55.2181 245.357 52.2992C245.61 44.6258 247.584 37.4416 252.31 31.2271C256.733 25.4111 262.604 22.0364 269.866 21.1778C271.681 20.9631 273.523 20.9724 275.484 20.8721C275.484 21.4462 275.484 21.8121 275.484 22.178C275.485 24.3358 275.493 26.4937 275.479 28.6514C275.476 29.197 275.568 29.5137 276.228 29.6085C283.175 30.6062 287.508 34.8712 290.274 41.0149C292.362 45.6544 293.137 50.5779 292.904 55.6169C292.609 62.0063 290.911 67.972 286.634 72.9273C283.849 76.1548 280.31 78.0427 276.026 78.5568C271.101 79.1476 266.633 78.1377 262.754 74.9886C259.669 72.4842 257.695 69.1888 256.339 65.4959C254.836 61.4001 254.182 57.1524 254.375 52.8123C254.644 46.7561 256.11 41.0401 259.912 36.158C261.475 34.1514 263.338 32.4277 265.685 31.3225C265.89 31.2258 266.111 31.1631 266.445 31.0406C266.445 32.302 266.466 33.4575 266.427 34.611C266.419 34.8354 266.229 35.1268 266.036 35.261C262.482 37.7261 260.504 41.265 259.326 45.2912C257.115 52.8478 257.522 60.2402 261.167 67.2931C263.229 71.2833 266.381 74.0716 270.955 74.8213C276.915 75.7981 281.727 73.8821 285.174 68.8346C287.484 65.4524 288.589 61.6461 289.074 57.6165C289.576 53.4451 289.158 49.3515 287.992 45.3476C286.797 41.243 284.735 37.6627 281.109 35.1902C279.111 33.8271 276.852 33.2056 274.451 33.0958C273.634 33.0585 272.813 33.0899 271.849 33.0899C271.849 30.288 271.849 27.5373 271.849 24.6511C269.611 24.7112 267.592 25.1002 265.633 25.8006C258.499 28.3516 254.042 33.5165 251.359 40.4283C249.395 45.4889 248.714 50.7459 249.021 56.1254C249.355 61.9997 250.661 67.6422 253.815 72.6955C257.838 79.1441 263.615 82.8124 271.259 83.4846C277.554 84.0383 283.293 82.6563 288.262 78.6776C291.785 75.8561 294.186 72.1773 295.818 67.9847C297.848 62.7683 298.589 57.3419 298.252 51.7865C297.911 46.1635 296.632 40.765 293.726 35.8621C290.927 31.1397 287.042 27.6711 281.797 25.8709C281.038 25.6105 280.776 25.2442 280.834 24.4709C280.898 23.6252 280.849 22.7709 280.849 21.8048C284.023 22.584 286.83 23.8572 289.359 25.7185C295.648 30.3473 299.196 36.7245 300.84 44.212C302.956 53.843 302.358 63.2681 297.901 72.1913C294.137 79.7303 288.209 84.8184 279.852 86.5702C272.577 88.0953 265.564 87.2269 259.126 83.2381C258.056 82.5752 257.098 81.7317 256.035 80.9229Z" fill="#7D5260"/>
<path d="M79.0681 85.0297C80.1219 82.0327 81.164 79.0316 82.2329 76.04C83.2451 73.2072 84.3035 70.3908 85.2997 67.5525C85.5349 66.8824 85.8264 66.5908 86.5991 66.5927C97.9629 66.6208 109.327 66.6156 120.691 66.5994C121.327 66.5985 121.647 66.7645 121.875 67.4109C123.541 72.116 125.277 76.7962 126.937 81.5029C127.243 82.3705 127.612 82.7811 128.604 82.7014C129.925 82.5954 131.261 82.6752 132.763 82.6752C132.628 82.1817 132.552 81.8022 132.421 81.4427C127.53 67.9789 122.634 54.517 117.74 41.0546C115.941 36.1068 114.138 31.1604 112.355 26.2073C112.17 25.6947 111.947 25.4385 111.342 25.4515C109.358 25.494 107.371 25.5026 105.387 25.4496C104.655 25.43 104.383 25.7407 104.156 26.3695C101.584 33.5093 98.9893 40.6415 96.394 47.7732C95.1902 51.0813 93.9704 54.3836 92.765 57.6912C92.7227 57.8072 92.7585 57.9517 92.871 58.1876C93.1166 58.3181 93.249 58.3667 93.3815 58.3668C100.142 58.371 106.903 58.3733 113.664 58.3633C113.917 58.3629 114.17 58.2396 114.423 58.1736C114.437 57.9917 114.512 57.7876 114.456 57.6312C112.518 52.2599 110.567 46.8929 108.615 41.5263C108.548 41.3419 108.451 41.1685 108.264 40.7703C107.8 42.0192 107.396 43.088 107.005 44.1618C106.024 46.8614 105.03 49.5568 104.084 52.2688C103.837 52.9766 103.513 53.3282 102.703 53.2541C101.799 53.1714 100.882 53.2351 99.8457 53.2351C102.657 45.4941 105.415 37.8979 108.173 30.3017C108.25 30.2967 108.327 30.2917 108.404 30.2867C112.195 40.7322 115.987 51.1777 119.819 61.7367C108.996 61.7367 98.3101 61.7367 87.4839 61.7367C88.1422 59.8986 88.7645 58.1395 89.4017 56.3857C93.4658 45.2002 97.5411 34.0188 101.582 22.8249C101.856 22.0669 102.172 21.7682 103.023 21.7822C106.548 21.8402 110.076 21.8344 113.601 21.7855C114.403 21.7744 114.735 22.0692 114.991 22.7793C118.956 33.7451 122.946 44.7018 126.925 55.6623C130.496 65.4978 134.062 75.3354 137.633 85.3314C137.579 86.2067 137.043 86.1149 136.57 86.1152C133.053 86.1177 129.536 86.131 126.019 86.099C125.576 86.0949 125.135 85.8469 124.693 85.712C123.406 82.2214 122.116 78.7319 120.834 75.2397C120.328 73.8608 119.792 72.49 119.361 71.0872C119.142 70.3732 118.75 70.2583 118.088 70.2602C110.836 70.2807 103.583 70.2729 96.3298 70.2729C93.9008 70.2729 91.4717 70.2816 89.0427 70.2663C88.5276 70.263 88.1553 70.3091 87.946 70.9039C86.6304 74.6425 85.2766 78.3676 83.9381 82.0981C83.8939 82.2213 83.878 82.3547 83.8094 82.6578C85.5377 82.6578 87.1917 82.6838 88.8426 82.6248C89.0477 82.6174 89.3136 82.1881 89.4206 81.9048C90.1571 79.9551 90.8764 77.9983 91.5614 76.0298C91.769 75.4331 92.0478 75.1391 92.7308 75.1851C93.6784 75.249 94.6335 75.2012 95.7395 75.2012C94.4418 78.759 93.1927 82.184 91.8199 85.6941C91.3859 85.8918 91.076 86.1008 90.7648 86.1026C87.0382 86.1249 83.3112 86.1277 79.5848 86.0896C79.3497 86.0872 79.1185 85.7041 78.8855 85.498C78.8855 85.498 78.8882 85.5017 78.9405 85.4614C79.0179 85.2906 79.043 85.1601 79.0681 85.0297Z" fill="#7D5260"/>
<path d="M21.5697 76.448C23.2659 73.9251 24.9461 71.3911 26.6614 68.8811C32.6064 60.1819 38.5635 51.491 44.5162 42.797C45.2894 41.6677 46.0431 40.524 46.852 39.421C47.0447 39.1582 47.416 38.8843 47.7181 38.869C48.9429 38.8066 50.1728 38.8431 51.6435 38.8431C44.3254 49.5333 37.1103 60.0731 29.7875 70.6846C29.5968 70.8909 29.5137 71.0255 29.4306 71.1602C29.4306 71.1602 29.3769 71.146 29.3319 71.1685C28.9796 71.7184 28.6722 72.2458 28.3648 72.7733C28.3648 72.7733 28.3509 72.7596 28.2974 72.7902C28.1449 73.0086 28.046 73.1964 27.9471 73.3842C27.9471 73.3842 27.939 73.3761 27.8931 73.4065C27.8027 73.5419 27.7582 73.647 27.7136 73.752C27.7136 73.752 27.7159 73.7665 27.6459 73.7842C27.5026 73.9428 27.4294 74.0837 27.3562 74.2246C27.3562 74.2246 27.3218 74.2099 27.2831 74.2414C27.2024 74.3851 27.1602 74.4972 27.118 74.6094C27.118 74.6094 27.1176 74.6085 27.0507 74.6205C26.9134 74.7767 26.8431 74.921 26.7729 75.0653C26.7729 75.0653 26.7575 75.0502 26.6871 75.0729C26.3087 75.6228 26.0008 76.1501 25.6929 76.6773C25.6929 76.6773 25.6838 76.6626 25.6142 76.6761C25.4528 76.7321 25.3162 76.7492 25.2757 76.8208C24.2479 78.6362 24.6971 80.5853 24.7858 82.5002C24.7881 82.5484 24.9565 82.5889 25.0475 82.633C25.0475 82.633 25.0621 82.6298 25.1016 82.7051C25.563 82.8622 25.9847 83.0148 26.4067 83.0153C38.3156 83.0282 50.2245 83.0257 62.1335 83.0258C65.3302 83.0258 65.3398 83.0259 65.3055 79.8015C65.3016 79.4336 65.1158 79.0675 65.0144 78.7006C65.0056 78.6182 64.9968 78.5357 65.0386 78.3817C65.064 78.2337 65.039 78.1574 65.0139 78.0811C64.9983 78.0432 64.9827 78.0054 64.8865 77.8604C64.4946 77.7443 64.1833 77.7355 63.872 77.7267C63.872 77.7267 63.8718 77.7121 63.8227 77.6469C63.5741 77.5498 63.3746 77.4903 63.1751 77.4902C53.4255 77.4855 43.6759 77.484 33.9263 77.4953C33.6445 77.4957 33.3629 77.6378 33.0812 77.7139C33.0812 77.7139 33.0945 77.7152 33.0165 77.6998C32.5612 77.471 32.1839 77.2577 31.8066 77.0443C31.8066 77.0443 31.8317 77.0434 31.8766 77.0214C31.9631 76.8866 32.0046 76.7739 32.0461 76.6611C32.0461 76.6611 32.0482 76.6639 32.1121 76.634C32.3301 76.3428 32.4842 76.0814 32.6384 75.82C32.6384 75.82 32.6653 75.837 32.7174 75.8057C33.279 74.9688 33.7887 74.1633 34.2983 73.3577C37.8392 68.1531 41.3751 62.9452 44.9221 57.7448C50.1857 50.0277 55.4574 42.3162 60.7227 34.6003C60.8307 34.4421 60.9023 34.259 61.053 33.9672C48.6859 33.9672 36.4496 33.9672 24.128 33.9672C24.128 29.8987 24.128 25.9194 24.128 21.8735C38.7169 21.8735 53.2819 21.8735 67.939 21.8735C67.939 23.0207 67.939 24.1611 67.939 25.4289C54.5889 25.4289 41.2264 25.4289 27.8083 25.4289C27.8083 27.1407 27.8083 28.7285 27.9378 30.4315C28.4056 30.5726 28.7439 30.6203 29.0822 30.6208C32.7457 30.6265 36.4091 30.6251 40.0725 30.625C48.8032 30.6248 57.5338 30.6179 66.2643 30.6451C66.6478 30.6463 67.0303 30.9582 67.4132 31.1254C66.0137 33.2296 64.6346 35.3478 63.211 37.4356C56.7176 46.9581 50.2102 56.4711 43.7113 65.9899C41.8796 68.6728 40.0595 71.3637 38.2838 74.183C38.7393 74.3446 39.1452 74.3992 39.5512 74.3995C49.1016 74.4053 58.6521 74.4052 68.2377 74.4845C68.3183 74.8628 68.4023 75.1626 68.4033 75.4628C68.4128 78.577 68.3877 81.6916 68.4213 84.8055C68.4318 85.7813 68.0555 86.1311 67.0846 86.1299C52.3073 86.1117 37.53 86.1112 22.7527 86.132C21.8746 86.1332 21.54 85.8871 21.5549 84.9692C21.6012 82.1295 21.5705 79.2885 21.5697 76.448Z" fill="#7D5260"/>
<path d="M233.012 78.0994C232.594 78.0184 232.176 77.8672 231.758 77.8667C221.934 77.8533 212.11 77.8562 202.286 77.8561C201.884 77.8561 201.482 77.8561 201.012 77.8561C201.012 59.1598 201.012 40.5792 201.012 21.9004C205.157 21.9004 209.309 21.9004 213.557 21.9004C213.557 37.6249 213.557 53.3823 213.557 69.2032C212.394 69.2032 211.252 69.2032 210.002 69.2032C210.002 54.6458 210.002 40.1418 210.002 25.4749C208.202 25.4749 206.506 25.4749 204.655 25.4628C204.47 25.6444 204.412 25.8381 204.412 26.0318C204.408 41.7708 204.407 57.5097 204.418 73.2487C204.418 73.5636 204.563 73.8783 204.641 74.1931C204.641 74.1931 204.736 74.2025 204.846 74.2675C205.329 74.3557 205.702 74.3989 206.075 74.399C215.757 74.403 225.438 74.4143 235.119 74.3833C236.015 74.3804 236.292 74.6064 236.275 75.5247C236.218 78.6725 236.227 81.8222 236.271 84.9703C236.282 85.7333 235.96 86.0515 235.298 86.0928C234.53 86.1409 233.756 86.1162 232.985 86.1163C223.612 86.1172 214.238 86.117 204.865 86.1168C203.958 86.1168 203.048 86.1611 202.147 86.0884C201.864 86.0655 201.381 85.7318 201.377 85.5318C201.357 84.6229 201.474 83.711 201.542 82.8002C201.628 82.7958 201.714 82.7914 201.924 82.8597C202.28 82.9665 202.513 83.0305 202.745 83.0306C212.41 83.0356 222.074 83.0395 231.738 83.0186C232.147 83.0177 232.556 82.779 232.965 82.651C232.965 82.651 232.964 82.6315 233.03 82.5643C233.12 81.3192 233.157 80.1413 233.163 78.9631C233.164 78.6755 233.065 78.3873 233.012 78.0994Z" fill="#7D5260"/>
<path d="M163.859 23.437C163.875 23.6068 163.905 23.7765 163.905 23.9463C163.903 38.9166 163.898 53.8869 163.789 68.9558C163.104 69.0569 162.515 69.0017 161.943 69.0744C160.921 69.2043 160.619 68.8617 160.622 67.7934C160.662 54.5907 160.655 41.3878 160.632 28.185C160.63 27.3555 160.393 26.5264 160.266 25.6972C159.78 25.6207 159.295 25.4905 158.808 25.4784C157.549 25.4471 156.288 25.4679 154.878 25.4679C154.878 41.7096 154.878 57.8566 154.949 74.1603C155.391 74.3458 155.763 74.3995 156.135 74.3997C165.782 74.404 175.429 74.4027 185.076 74.4024C185.316 74.4024 185.556 74.4162 185.794 74.4C186.298 74.3659 186.545 74.5408 186.542 75.0947C186.527 78.5172 186.533 81.9399 186.536 85.3625C186.537 85.9463 186.228 86.1303 185.686 86.1114C183.556 86.0374 181.426 85.9289 179.296 85.9238C170.572 85.9027 161.849 85.9172 153.125 85.9131C151.43 85.9124 151.621 86.0901 151.612 84.3536C151.605 83.0359 151.612 83.035 152.957 83.0349C162.467 83.0346 171.978 83.0374 181.488 83.025C181.873 83.0245 182.258 82.8813 182.643 82.8046C182.841 82.5202 183.195 82.2432 183.209 81.95C183.27 80.6732 183.232 79.3916 183.211 77.9662C183.131 77.7988 183.069 77.7769 183.007 77.755C183.007 77.755 182.923 77.7475 182.826 77.6682C182.324 77.5557 181.92 77.4936 181.516 77.4934C171.903 77.4878 162.29 77.4766 152.678 77.5076C151.695 77.5107 151.387 77.2214 151.388 76.2266C151.414 58.5666 151.406 40.9065 151.416 23.2465C151.417 22.7782 151.55 22.31 151.622 21.8418C154.977 21.8333 158.332 21.8247 161.808 21.9018C162.852 22.0971 163.626 22.4058 163.859 23.437Z" fill="#7D5260"/>
<path d="M182.562 82.7768C182.258 82.881 181.873 83.0242 181.488 83.0247C171.978 83.0371 162.467 83.0343 152.957 83.0346C151.612 83.0346 151.605 83.0356 151.612 84.3533C151.621 86.0898 151.43 85.912 153.125 85.9128C161.849 85.9168 170.572 85.9024 179.296 85.9235C181.426 85.9286 183.556 86.0371 185.686 86.1111C186.228 86.1299 186.537 85.946 186.536 85.3622C186.533 81.9395 186.527 78.5169 186.542 75.0943C186.545 74.5404 186.298 74.3656 185.794 74.3997C185.556 74.4159 185.316 74.4021 185.076 74.4021C175.429 74.4024 165.782 74.4037 156.135 74.3994C155.763 74.3992 155.391 74.3454 154.959 74.2557C165.466 74.1948 176.033 74.1948 186.692 74.1948C186.692 78.2407 186.692 82.2151 186.692 86.2579C174.89 86.2579 163.108 86.2579 151.266 86.2579C151.266 85.0729 151.266 83.9281 151.266 82.7409C151.777 82.717 152.251 82.6755 152.726 82.6753C162.305 82.6715 171.884 82.6716 181.463 82.6756C181.802 82.6757 182.142 82.7237 182.562 82.7768Z" fill="#7D5260"/>
<path d="M151.538 21.8389C151.55 22.3096 151.417 22.7778 151.416 23.2461C151.406 40.9061 151.414 58.5661 151.388 76.2261C151.387 77.2209 151.695 77.5103 152.678 77.5071C162.291 77.4762 171.903 77.4874 181.516 77.4929C181.92 77.4932 182.325 77.5552 182.786 77.6556C182.437 77.7697 182.032 77.8575 181.626 77.8577C171.758 77.8628 161.89 77.8585 151.88 77.8115C151.618 77.7622 151.498 77.7573 151.377 77.7525C151.317 77.3932 151.204 77.0339 151.204 76.6746C151.195 58.7658 151.195 40.8571 151.207 22.9484C151.208 22.5776 151.368 22.207 151.538 21.8389Z" fill="#7D5260"/>
<path d="M201.483 82.7607C201.474 83.7112 201.357 84.6231 201.377 85.5319C201.382 85.732 201.864 86.0657 202.147 86.0885C203.048 86.1613 203.958 86.117 204.865 86.117C214.238 86.1172 223.612 86.1174 232.985 86.1165C233.756 86.1164 234.53 86.1411 235.298 86.093C235.96 86.0517 236.282 85.7335 236.271 84.9705C236.227 81.8224 236.219 78.6727 236.275 75.5249C236.292 74.6066 236.015 74.3806 235.119 74.3835C225.438 74.4145 215.757 74.4032 206.075 74.3992C205.702 74.3991 205.329 74.3559 204.893 74.2777C214.827 74.2133 224.824 74.2039 234.821 74.1946C235.367 74.1941 235.912 74.1945 236.552 74.1945C236.552 78.2311 236.552 82.2096 236.552 86.2725C236.212 86.2913 235.881 86.3256 235.551 86.3257C224.389 86.3284 213.228 86.3185 202.066 86.3461C201.195 86.3482 200.796 86.1826 200.927 85.2262C201.014 84.5873 200.906 83.9234 200.965 83.278C200.983 83.08 201.263 82.906 201.483 82.7607Z" fill="#7D5260"/>
<path d="M160.253 25.792C160.393 26.5261 160.63 27.3552 160.632 28.1847C160.655 41.3875 160.662 54.5904 160.622 67.7931C160.619 68.8614 160.921 69.204 161.943 69.0741C162.515 69.0014 163.104 69.0566 163.774 69.0497C162.71 69.1523 161.557 69.2594 160.241 69.3817C160.241 54.7574 160.241 40.3223 160.253 25.792Z" fill="#7D5260"/>
<path d="M64.9866 78.7954C65.1158 79.0679 65.3015 79.434 65.3054 79.8019C65.3397 83.0263 65.3301 83.0262 62.1334 83.0262C50.2244 83.0261 38.3155 83.0286 26.4066 83.0156C25.9846 83.0152 25.5629 82.8626 25.0989 82.7125C38.2986 82.6442 51.5405 82.6442 64.9589 82.6442C64.9589 81.3286 64.9589 80.1092 64.9866 78.7954Z" fill="#7D5260"/>
<path d="M21.5095 76.5112C21.5705 79.2889 21.6012 82.1299 21.5549 84.9696C21.54 85.8875 21.8746 86.1336 22.7527 86.1323C37.53 86.1115 52.3073 86.1121 67.0846 86.1302C68.0555 86.1314 68.4318 85.7816 68.4213 84.8058C68.3877 81.6919 68.4128 78.5774 68.4033 75.4631C68.4023 75.163 68.3183 74.8631 68.2385 74.4405C68.2042 74.318 68.2046 74.2295 68.2046 74.2295C68.3401 74.3329 68.5936 74.4358 68.5941 74.5399C68.6143 78.4319 68.6111 82.3241 68.6111 86.2711C52.8505 86.2711 37.1934 86.2711 21.4492 86.2711C21.4492 83.0364 21.4492 79.8052 21.5095 76.5112Z" fill="#7D5260"/>
<path d="M232.869 82.6577C232.556 82.7793 232.147 83.0181 231.738 83.0189C222.074 83.0399 212.41 83.0359 202.746 83.0309C202.513 83.0308 202.28 82.9669 201.988 82.8668C202.296 82.7552 202.662 82.6701 203.028 82.6698C212.943 82.6626 222.858 82.664 232.869 82.6577Z" fill="#7D5260"/>
<path d="M204.632 74.0976C204.564 73.8784 204.418 73.5637 204.418 73.2488C204.407 57.5098 204.408 41.7709 204.412 26.0319C204.412 25.8382 204.47 25.6445 204.56 25.4717C204.62 41.6624 204.621 57.8322 204.632 74.0976Z" fill="#7D5260"/>
<path d="M67.4752 31.0724C67.0301 30.9583 66.6476 30.6464 66.2642 30.6452C57.5336 30.618 48.803 30.6249 40.0724 30.6251C36.4089 30.6251 32.7455 30.6265 29.0821 30.6208C28.7437 30.6203 28.4054 30.5726 28.0061 30.4876C31.0895 30.4175 34.2339 30.3984 37.3783 30.397C47.1211 30.3928 56.8638 30.3953 66.6065 30.3952C66.9736 30.3951 67.3406 30.3952 67.8476 30.3952C67.7013 30.6895 67.6193 30.8545 67.4752 31.0724Z" fill="#7D5260"/>
<path d="M33.1392 77.728C33.3627 77.638 33.6444 77.4958 33.9262 77.4955C43.6757 77.4842 53.4253 77.4856 63.1749 77.4903C63.3744 77.4904 63.5739 77.55 63.8298 77.6476C63.4824 77.7249 63.0787 77.7363 62.4892 77.7226C53.6694 77.6924 45.0354 77.6856 36.4015 77.6842C35.4128 77.6841 34.4241 77.7142 33.4355 77.7303C33.3561 77.7342 33.2767 77.7381 33.1392 77.728Z" fill="#7D5260"/>
<path d="M68.109 74.217C68.2046 74.2293 68.2041 74.3178 68.2034 74.362C58.6521 74.4053 49.1016 74.4054 39.5512 74.3997C39.1452 74.3994 38.7394 74.3447 38.2742 74.2536C48.1477 74.196 58.0806 74.2003 68.109 74.217Z" fill="#7D5260"/>
<path d="M33.5115 77.7748C34.4242 77.7141 35.4129 77.6839 36.4015 77.6841C45.0355 77.6855 53.6694 77.6922 62.4034 77.7138C62.2394 77.7778 61.9754 77.8667 61.7115 77.8669C52.4719 77.8736 43.2324 77.8723 33.9928 77.8695C33.8577 77.8695 33.7226 77.8368 33.5115 77.7748Z" fill="#7D5260"/>
<path d="M114.327 58.1624C114.17 58.2397 113.917 58.363 113.664 58.3633C106.903 58.3733 100.142 58.3711 93.3813 58.3669C93.2489 58.3668 93.1165 58.3182 92.9229 58.2331C99.9851 58.1663 107.109 58.1587 114.327 58.1624Z" fill="#7D5260"/>
<path d="M124.698 85.7963C125.135 85.8468 125.575 86.0948 126.018 86.0988C129.535 86.1308 133.053 86.1175 136.57 86.1151C137.042 86.1147 137.579 86.2065 137.638 85.4106C137.763 85.5987 137.888 85.8665 138.063 86.2416C137.743 86.2783 137.526 86.3246 137.309 86.3248C133.431 86.3286 129.553 86.3375 125.675 86.307C125.35 86.3044 125.027 86.0292 124.698 85.7963Z" fill="#7D5260"/>
<path d="M78.8309 85.5591C79.1183 85.7042 79.3495 86.0874 79.5846 86.0898C83.311 86.1278 87.038 86.1251 90.7647 86.1028C91.0758 86.1009 91.3857 85.892 91.7691 85.746C91.6057 85.9178 91.371 86.2993 91.1328 86.3015C87.19 86.338 83.2466 86.3216 79.3034 86.3326C78.7512 86.3341 78.5221 86.1765 78.8309 85.5591Z" fill="#7D5260"/>
<path d="M25.0519 82.5361C24.9564 82.589 24.788 82.5485 24.7857 82.5003C24.697 80.5854 24.2478 78.6363 25.2756 76.8209C25.3161 76.7493 25.4527 76.7321 25.6199 76.6831C24.7105 77.9705 25.1469 79.4787 25.0649 80.907C25.0357 81.4162 25.0578 81.9284 25.0519 82.5361Z" fill="#7D5260"/>
<path d="M163.881 23.3465C163.626 22.4054 162.852 22.0967 161.903 21.9145C162.077 21.8261 162.277 21.7996 162.478 21.7964C163.945 21.7726 163.945 21.7741 163.881 23.3465Z" fill="#7D5260"/>
<path d="M232.997 78.1953C233.065 78.3876 233.165 78.6758 233.163 78.9634C233.158 80.1416 233.121 81.3195 233.039 82.5613C232.982 81.1804 232.982 79.7357 232.997 78.1953Z" fill="#7D5260"/>
<path d="M34.2404 73.3955C33.7887 74.1634 33.279 74.969 32.7031 75.799C33.1521 75.0267 33.6673 74.2299 34.2404 73.3955Z" fill="#7D5260"/>
<path d="M31.7439 77.0708C32.1839 77.2576 32.5612 77.471 33.0153 77.7063C32.5251 77.7883 31.958 77.8483 31.1565 77.933C31.4228 77.5089 31.552 77.3031 31.7439 77.0708Z" fill="#7D5260"/>
<path d="M28.4241 72.7384C28.6721 72.2459 28.9795 71.7185 29.3583 71.1777C29.1143 71.6774 28.7989 72.1904 28.4241 72.7384Z" fill="#7D5260"/>
<path d="M25.752 76.6425C26.0007 76.1505 26.3086 75.6232 26.6878 75.084C26.443 75.5837 26.1271 76.0955 25.752 76.6425Z" fill="#7D5260"/>
<path d="M32.581 75.8535C32.4843 76.0818 32.3301 76.3432 32.1106 76.6339C32.2047 76.4043 32.3641 76.1455 32.581 75.8535Z" fill="#7D5260"/>
<path d="M63.9331 77.7724C64.1834 77.7357 64.4947 77.7445 64.8632 77.8038C64.6117 77.8422 64.3029 77.8301 63.9331 77.7724Z" fill="#7D5260"/>
<path d="M28.0032 73.3524C28.0461 73.1964 28.1453 73.0086 28.3067 72.7949C28.2658 72.9529 28.1626 73.1367 28.0032 73.3524Z" fill="#7D5260"/>
<path d="M26.8284 75.0417C26.843 74.921 26.9135 74.7767 27.0515 74.6206C27.0408 74.7452 26.9625 74.8817 26.8284 75.0417Z" fill="#7D5260"/>
<path d="M27.4084 74.1968C27.4295 74.084 27.5029 73.9431 27.6393 73.7856C27.6218 73.9023 27.5413 74.0355 27.4084 74.1968Z" fill="#7D5260"/>
<path d="M29.4883 71.1382C29.5137 71.0256 29.597 70.891 29.7373 70.7305C29.7116 70.8418 29.6289 70.9789 29.4883 71.1382Z" fill="#7D5260"/>
<path d="M27.1664 74.5746C27.1601 74.4972 27.2024 74.385 27.3013 74.2466C27.3103 74.3268 27.2626 74.4333 27.1664 74.5746Z" fill="#7D5260"/>
<path d="M151.426 77.7905C151.498 77.7575 151.618 77.7623 151.785 77.8065C151.713 77.8401 151.593 77.8343 151.426 77.7905Z" fill="#7D5260"/>
<path d="M64.9959 78.1436C65.0391 78.1576 65.0643 78.234 65.0506 78.3206C65.0005 78.2892 64.9892 78.2475 64.9959 78.1436Z" fill="#7D5260"/>
<path d="M31.9977 76.6963C32.0049 76.7743 31.9633 76.887 31.8648 77.0262C31.855 76.9455 31.9019 76.8383 31.9977 76.6963Z" fill="#7D5260"/>
<path d="M27.7645 73.7234C27.7582 73.6472 27.8028 73.5421 27.8989 73.4087C27.9054 73.485 27.8604 73.5898 27.7645 73.7234Z" fill="#7D5260"/>
<path d="M79.0207 85.0757C79.0433 85.1601 79.0181 85.2905 78.9383 85.4612C78.9134 85.3749 78.9432 85.2483 79.0207 85.0757Z" fill="#7D5260"/>
<path d="M183.036 77.7896C183.069 77.7768 183.131 77.7987 183.205 77.8716C183.161 77.8978 183.111 77.865 183.036 77.7896Z" fill="#7D5260"/>
</g>
<defs>
<clipPath id="clip0_53727_32252">
<rect width="325" height="104" fill="white"/>
</clipPath>
</defs>
</svg>
