<svg width="167" height="64" viewBox="0 0 167 64" fill="none" xmlns="http://www.w3.org/2000/svg">
<path d="M42.7002 50.7124V58H5.67627V50.7124H42.7002ZM41.8579 10.356L9.08203 58H2.92969V52.1772L35.8154 4.67969H41.8579V10.356ZM38.4521 4.67969V12.0039H3.14941V4.67969H38.4521ZM72.1436 50.0532V31.1567C72.1436 29.7407 71.8872 28.52 71.3745 27.4946C70.8618 26.4692 70.0806 25.6758 69.0308 25.1143C68.0054 24.5527 66.7114 24.272 65.1489 24.272C63.7085 24.272 62.4634 24.5161 61.4136 25.0044C60.3638 25.4927 59.5459 26.1519 58.96 26.9819C58.374 27.812 58.0811 28.752 58.0811 29.8018H49.292C49.292 28.2393 49.6704 26.7256 50.4272 25.2607C51.1841 23.7959 52.2827 22.4897 53.7231 21.3423C55.1636 20.1948 56.8848 19.2915 58.8867 18.6323C60.8887 17.9731 63.1348 17.6436 65.625 17.6436C68.6035 17.6436 71.2402 18.144 73.5352 19.145C75.8545 20.146 77.6733 21.6597 78.9917 23.686C80.3345 25.688 81.0059 28.2026 81.0059 31.23V48.8447C81.0059 50.6514 81.1279 52.2749 81.3721 53.7153C81.6406 55.1313 82.019 56.3643 82.5073 57.4141V58H73.4619C73.0469 57.0479 72.7173 55.8394 72.4731 54.3745C72.2534 52.8853 72.1436 51.4448 72.1436 50.0532ZM73.4253 33.9033L73.4985 39.3599H67.1631C65.5273 39.3599 64.0869 39.5186 62.8418 39.8359C61.5967 40.1289 60.5591 40.5684 59.729 41.1543C58.8989 41.7402 58.2764 42.4482 57.8613 43.2783C57.4463 44.1084 57.2388 45.0483 57.2388 46.0981C57.2388 47.1479 57.4829 48.1123 57.9712 48.9912C58.4595 49.8457 59.1675 50.5171 60.0952 51.0054C61.0474 51.4937 62.1948 51.7378 63.5376 51.7378C65.3442 51.7378 66.9189 51.3716 68.2617 50.6392C69.6289 49.8823 70.7031 48.9668 71.4844 47.8926C72.2656 46.7939 72.6807 45.7563 72.7295 44.7798L75.5859 48.6982C75.293 49.6992 74.7925 50.7734 74.0845 51.9209C73.3765 53.0684 72.4487 54.167 71.3013 55.2168C70.1782 56.2422 68.8232 57.0845 67.2363 57.7437C65.6738 58.4028 63.8672 58.7324 61.8164 58.7324C59.2285 58.7324 56.9214 58.2197 54.895 57.1943C52.8687 56.1445 51.2817 54.7407 50.1343 52.9829C48.9868 51.2007 48.4131 49.1865 48.4131 46.9404C48.4131 44.8408 48.8037 42.9854 49.585 41.374C50.3906 39.7383 51.5625 38.3711 53.1006 37.2725C54.6631 36.1738 56.5674 35.3438 58.8135 34.7822C61.0596 34.1963 63.623 33.9033 66.5039 33.9033H73.4253ZM99.6826 1.75V58H90.8203V1.75H99.6826ZM118.799 1.75V58H109.937V1.75H118.799ZM126.782 38.6274V37.7852C126.782 34.9287 127.197 32.2798 128.027 29.8384C128.857 27.3726 130.054 25.2363 131.616 23.4297C133.203 21.5986 135.132 20.1826 137.402 19.1816C139.697 18.1562 142.285 17.6436 145.166 17.6436C148.071 17.6436 150.659 18.1562 152.93 19.1816C155.225 20.1826 157.166 21.5986 158.752 23.4297C160.339 25.2363 161.548 27.3726 162.378 29.8384C163.208 32.2798 163.623 34.9287 163.623 37.7852V38.6274C163.623 41.4839 163.208 44.1328 162.378 46.5742C161.548 49.0156 160.339 51.1519 158.752 52.9829C157.166 54.7896 155.237 56.2056 152.966 57.231C150.696 58.2319 148.12 58.7324 145.239 58.7324C142.334 58.7324 139.734 58.2319 137.439 57.231C135.168 56.2056 133.24 54.7896 131.653 52.9829C130.066 51.1519 128.857 49.0156 128.027 46.5742C127.197 44.1328 126.782 41.4839 126.782 38.6274ZM135.608 37.7852V38.6274C135.608 40.4097 135.791 42.0942 136.157 43.6812C136.523 45.2681 137.097 46.6597 137.878 47.856C138.66 49.0522 139.661 49.9922 140.881 50.6758C142.102 51.3594 143.555 51.7012 145.239 51.7012C146.875 51.7012 148.291 51.3594 149.487 50.6758C150.708 49.9922 151.709 49.0522 152.49 47.856C153.271 46.6597 153.845 45.2681 154.211 43.6812C154.602 42.0942 154.797 40.4097 154.797 38.6274V37.7852C154.797 36.0273 154.602 34.3672 154.211 32.8047C153.845 31.2178 153.259 29.814 152.454 28.5933C151.672 27.3726 150.671 26.4204 149.451 25.7368C148.254 25.0288 146.826 24.6748 145.166 24.6748C143.506 24.6748 142.065 25.0288 140.845 25.7368C139.648 26.4204 138.66 27.3726 137.878 28.5933C137.097 29.814 136.523 31.2178 136.157 32.8047C135.791 34.3672 135.608 36.0273 135.608 37.7852Z" fill="#6750A4"/>
</svg>
