<svg width="679" height="234" viewBox="0 0 679 234" fill="none" xmlns="http://www.w3.org/2000/svg">
<path d="M16 216H166" stroke="#7F67BE" stroke-width="32" stroke-linecap="round"/>
<path d="M16 216L166 16" stroke="#6750A4" stroke-width="32" stroke-linecap="round"/>
<path d="M37 116H145" stroke="#6750A4" stroke-width="32" stroke-linecap="round"/>
<path d="M16 16H166" stroke="#7F67BE" stroke-width="32" stroke-linecap="round"/>
<path d="M312.111 203.9V122.309C312.111 116.059 310.842 110.639 308.303 106.049C305.861 101.361 302.15 97.748 297.17 95.209C292.189 92.6699 286.037 91.4004 278.713 91.4004C271.877 91.4004 265.871 92.5723 260.695 94.916C255.617 97.2598 251.613 100.336 248.684 104.145C245.852 107.953 244.436 112.055 244.436 116.449H217.336C217.336 110.785 218.801 105.17 221.73 99.6035C224.66 94.0371 228.859 89.0078 234.328 84.5156C239.895 79.9258 246.535 76.3125 254.25 73.6758C262.062 70.9414 270.754 69.5742 280.324 69.5742C291.848 69.5742 302.004 71.5273 310.793 75.4336C319.68 79.3398 326.613 85.248 331.594 93.1582C336.672 100.971 339.211 110.785 339.211 122.602V196.43C339.211 201.703 339.65 207.318 340.529 213.275C341.506 219.232 342.922 224.359 344.777 228.656V231H316.506C315.139 227.875 314.064 223.725 313.283 218.549C312.502 213.275 312.111 208.393 312.111 203.9ZM316.799 134.906L317.092 153.949H289.699C281.984 153.949 275.1 154.584 269.045 155.854C262.99 157.025 257.912 158.832 253.811 161.273C249.709 163.715 246.584 166.791 244.436 170.502C242.287 174.115 241.213 178.363 241.213 183.246C241.213 188.227 242.336 192.768 244.582 196.869C246.828 200.971 250.197 204.242 254.689 206.684C259.279 209.027 264.895 210.199 271.535 210.199C279.836 210.199 287.16 208.441 293.508 204.926C299.855 201.41 304.885 197.113 308.596 192.035C312.404 186.957 314.455 182.025 314.748 177.24L326.32 190.277C325.637 194.379 323.781 198.92 320.754 203.9C317.727 208.881 313.674 213.666 308.596 218.256C303.615 222.748 297.658 226.508 290.725 229.535C283.889 232.465 276.174 233.93 267.58 233.93C256.838 233.93 247.414 231.83 239.309 227.631C231.301 223.432 225.051 217.816 220.559 210.785C216.164 203.656 213.967 195.697 213.967 186.908C213.967 178.412 215.627 170.941 218.947 164.496C222.268 157.953 227.053 152.533 233.303 148.236C239.553 143.842 247.072 140.521 255.861 138.275C264.65 136.029 274.465 134.906 285.305 134.906H316.799ZM411.281 6V231H384.035V6H411.281ZM484.23 6V231H456.984V6H484.23ZM520.559 153.51V150.141C520.559 138.715 522.219 128.119 525.539 118.354C528.859 108.49 533.645 99.9453 539.895 92.7188C546.145 85.3945 553.713 79.7305 562.6 75.7266C571.486 71.625 581.447 69.5742 592.482 69.5742C603.615 69.5742 613.625 71.625 622.512 75.7266C631.496 79.7305 639.113 85.3945 645.363 92.7188C651.711 99.9453 656.545 108.49 659.865 118.354C663.186 128.119 664.846 138.715 664.846 150.141V153.51C664.846 164.936 663.186 175.531 659.865 185.297C656.545 195.062 651.711 203.607 645.363 210.932C639.113 218.158 631.545 223.822 622.658 227.924C613.869 231.928 603.908 233.93 592.775 233.93C581.643 233.93 571.633 231.928 562.746 227.924C553.859 223.822 546.242 218.158 539.895 210.932C533.645 203.607 528.859 195.062 525.539 185.297C522.219 175.531 520.559 164.936 520.559 153.51ZM547.658 150.141V153.51C547.658 161.42 548.586 168.891 550.441 175.922C552.297 182.855 555.08 189.008 558.791 194.379C562.6 199.75 567.336 203.998 573 207.123C578.664 210.15 585.256 211.664 592.775 211.664C600.197 211.664 606.691 210.15 612.258 207.123C617.922 203.998 622.609 199.75 626.32 194.379C630.031 189.008 632.814 182.855 634.67 175.922C636.623 168.891 637.6 161.42 637.6 153.51V150.141C637.6 142.328 636.623 134.955 634.67 128.021C632.814 120.99 629.982 114.789 626.174 109.418C622.463 103.949 617.775 99.6523 612.111 96.5273C606.545 93.4023 600.002 91.8398 592.482 91.8398C585.061 91.8398 578.518 93.4023 572.854 96.5273C567.287 99.6523 562.6 103.949 558.791 109.418C555.08 114.789 552.297 120.99 550.441 128.021C548.586 134.955 547.658 142.328 547.658 150.141Z" fill="#7F67BE"/>
</svg>
