<?xml version="1.0" encoding="UTF-8" standalone="no"?>
<svg
   fill="none"
   height="384"
   viewBox="0 0 384.00027 384"
   width="384.00027"
   version="1.1"
   id="svg12"
   xmlns="http://www.w3.org/2000/svg"
   xmlns:svg="http://www.w3.org/2000/svg">
  <defs
     id="defs16" />
  <path
     d="m 78.613027,120.30685 c 62.621993,-61.312309 164.151993,-61.312309 226.774993,0 l 7.536,7.3788 c 3.131,3.066 3.131,8.03599 0,11.10199 l -25.781,25.242 c -1.566,1.533 -4.104,1.533 -5.67,0 l -10.371,-10.154 c -43.687,-42.77339 -114.517,-42.77339 -158.204,0 l -11.107,10.874 c -1.565,1.533 -4.102993,1.533 -5.668993,0 l -25.781,-25.242 c -3.132,-3.066 -3.132,-8.03599 0,-11.10199 z m 280.092993,52.20379 22.946,22.46499 c 3.131,3.066 3.131,8.036 0,11.102 l -103.463,101.301 c -3.131,3.065 -8.208,3.065 -11.339,0 l -73.432,-71.896 c -0.783,-0.767 -2.052,-0.767 -2.835,0 l -73.43,71.896 c -3.131,3.065 -8.208,3.065 -11.339,0 L 2.3483282,206.07663 c -3.13109997,-3.066 -3.13109997,-8.036 0,-11.102 L 25.293927,172.50864 c 3.1311,-3.065 8.2077,-3.065 11.3388,0 l 73.433293,71.89699 c 0.782,0.767 2.051,0.767 2.834,0 l 73.429,-71.89699 c 3.131,-3.065 8.208,-3.065 11.339,0 l 73.433,71.89699 c 0.783,0.767 2.05201,0.767 2.835,0 l 73.431,-71.89499 c 3.132,-3.066 8.208,-3.066 11.339,0 z"
     fill="#000000"
     id="path10" />
</svg>
