<svg width="220" height="220" viewBox="0 0 220 220" fill="none" xmlns="http://www.w3.org/2000/svg">
<path d="M132.772 38.6891C138.249 47.9902 140.737 56.1385 141.643 67.2728C142.812 81.5096 140.089 93.6159 132.996 105.78C129.792 111.287 121.204 121.039 112.657 128.952C96.3563 144.007 88.6408 161.263 90.1677 179.259C90.4087 182.559 90.5548 185.203 90.4707 185.132C89.9662 184.706 85.4701 176.376 84.393 173.812C78.8948 161.036 77.3838 145.07 80.4195 132.508C83.9559 117.559 91.3735 106.461 108.058 90.8649C124.714 75.389 132.345 58.0616 130.573 39.9305L130.105 34.4234C130.146 34.3757 131.356 36.2699 132.772 38.6891Z" fill="url(#paint0_linear_54530_9979)"/>
<path d="M152.501 73.5543C157.978 82.8554 160.466 91.0037 161.371 102.138C162.54 116.375 159.818 128.481 152.725 140.646C149.52 146.152 140.933 155.904 132.386 163.817C116.085 178.872 108.37 196.128 109.896 214.124C110.138 217.424 110.284 220.068 110.199 219.997C109.695 219.571 105.199 211.242 104.122 208.677C98.6236 195.901 97.1125 179.935 100.148 167.373C103.685 152.424 111.102 141.326 127.787 125.73C144.443 110.254 152.074 92.9268 150.301 74.7958L149.834 69.2886C149.874 69.2409 151.085 71.1351 152.501 73.5543Z" fill="url(#paint1_linear_54530_9979)"/>
<path d="M113.354 4.2687C118.831 13.5698 121.319 21.7181 122.225 32.8524C123.394 47.0892 120.671 59.1955 113.578 71.3599C110.374 76.8668 101.786 86.6181 93.239 94.5313C76.9382 109.587 69.2226 126.843 70.7496 144.839C70.9906 148.138 71.1367 150.782 71.0526 150.711C70.5481 150.286 66.052 141.956 64.9749 139.391C59.4767 126.615 57.9657 110.649 61.0014 98.0871C64.5377 83.1384 71.9554 72.0401 88.6401 56.4445C105.296 40.9686 112.927 23.6412 111.154 5.51013L110.687 0.00297944C110.728 -0.044723 111.938 1.84947 113.354 4.2687Z" fill="url(#paint2_linear_54530_9979)"/>
<defs>
<linearGradient id="paint0_linear_54530_9979" x1="64.9123" y1="163.571" x2="155.67" y2="55.9837" gradientUnits="userSpaceOnUse">
<stop stop-color="#6750A4"/>
<stop offset="1" stop-color="#7D5260"/>
</linearGradient>
<linearGradient id="paint1_linear_54530_9979" x1="84.641" y1="198.437" x2="175.399" y2="90.8489" gradientUnits="userSpaceOnUse">
<stop stop-color="#6750A4"/>
<stop offset="1" stop-color="#7D5260"/>
</linearGradient>
<linearGradient id="paint2_linear_54530_9979" x1="45.4942" y1="129.151" x2="136.252" y2="21.5633" gradientUnits="userSpaceOnUse">
<stop stop-color="#6750A4"/>
<stop offset="1" stop-color="#7D5260"/>
</linearGradient>
</defs>
</svg>
