<svg width="300" height="300" viewBox="0 0 300 300" fill="none" xmlns="http://www.w3.org/2000/svg">
<rect width="300" height="300" fill="#FEF7FF"/>
<path d="M172.772 78.6891C178.249 87.9902 180.737 96.1385 181.643 107.273C182.812 121.51 180.089 133.616 172.996 145.78C169.792 151.287 161.204 161.039 152.657 168.952C136.356 184.007 128.641 201.263 130.168 219.259C130.409 222.559 130.555 225.203 130.471 225.132C129.966 224.706 125.47 216.376 124.393 213.812C118.895 201.036 117.384 185.07 120.42 172.508C123.956 157.559 131.374 146.461 148.058 130.865C164.714 115.389 172.345 98.0616 170.573 79.9305L170.105 74.4234C170.146 74.3757 171.356 76.2699 172.772 78.6891Z" fill="url(#paint0_linear_54533_7867)"/>
<path d="M192.501 113.554C197.978 122.855 200.466 131.004 201.371 142.138C202.54 156.375 199.818 168.481 192.725 180.646C189.52 186.152 180.933 195.904 172.386 203.817C156.085 218.872 148.37 236.128 149.897 254.124C150.138 257.424 150.284 260.068 150.199 259.997C149.695 259.571 145.199 251.242 144.122 248.677C138.624 235.901 137.113 219.935 140.148 207.373C143.685 192.424 151.102 181.326 167.787 165.73C184.443 150.254 192.074 132.927 190.301 114.796L189.834 109.289C189.874 109.241 191.085 111.135 192.501 113.554Z" fill="url(#paint1_linear_54533_7867)"/>
<path d="M153.354 44.2687C158.831 53.5698 161.319 61.7181 162.225 72.8524C163.393 87.0892 160.671 99.1955 153.578 111.36C150.374 116.867 141.786 126.618 133.239 134.531C116.938 149.587 109.223 166.843 110.75 184.839C110.991 188.138 111.137 190.782 111.053 190.711C110.548 190.286 106.052 181.956 104.975 179.391C99.4767 166.615 97.9657 150.649 101.001 138.087C104.538 123.138 111.955 112.04 128.64 96.4445C145.296 80.9686 152.927 63.6412 151.154 45.5101L150.687 40.003C150.728 39.9553 151.938 41.8495 153.354 44.2687Z" fill="url(#paint2_linear_54533_7867)"/>
<defs>
<linearGradient id="paint0_linear_54533_7867" x1="104.912" y1="203.571" x2="195.67" y2="95.9837" gradientUnits="userSpaceOnUse">
<stop stop-color="#6750A4"/>
<stop offset="1" stop-color="#7D5260"/>
</linearGradient>
<linearGradient id="paint1_linear_54533_7867" x1="124.641" y1="238.437" x2="215.399" y2="130.849" gradientUnits="userSpaceOnUse">
<stop stop-color="#6750A4"/>
<stop offset="1" stop-color="#7D5260"/>
</linearGradient>
<linearGradient id="paint2_linear_54533_7867" x1="85.4942" y1="169.151" x2="176.252" y2="61.5633" gradientUnits="userSpaceOnUse">
<stop stop-color="#6750A4"/>
<stop offset="1" stop-color="#7D5260"/>
</linearGradient>
</defs>
</svg>
