<svg width="678" height="260" viewBox="0 0 678 260" fill="none" xmlns="http://www.w3.org/2000/svg">
<path d="M132.772 58.6891C138.249 67.9902 140.737 76.1385 141.643 87.2728C142.812 101.51 140.089 113.616 132.996 125.78C129.792 131.287 121.204 141.039 112.657 148.952C96.3563 164.007 88.6408 181.263 90.1677 199.259C90.4087 202.559 90.5548 205.203 90.4707 205.132C89.9662 204.706 85.4701 196.376 84.393 193.812C78.8948 181.036 77.3838 165.07 80.4195 152.508C83.9559 137.559 91.3735 126.461 108.058 110.865C124.714 95.389 132.345 78.0616 130.573 59.9305L130.105 54.4234C130.146 54.3757 131.356 56.2699 132.772 58.6891Z" fill="url(#paint0_linear_54549_11499)"/>
<path d="M152.501 93.5543C157.978 102.855 160.466 111.004 161.371 122.138C162.54 136.375 159.818 148.481 152.725 160.646C149.52 166.152 140.933 175.904 132.386 183.817C116.085 198.872 108.37 216.128 109.896 234.124C110.138 237.424 110.284 240.068 110.199 239.997C109.695 239.571 105.199 231.242 104.122 228.677C98.6236 215.901 97.1125 199.935 100.148 187.373C103.685 172.424 111.102 161.326 127.787 145.73C144.443 130.254 152.074 112.927 150.301 94.7958L149.834 89.2886C149.874 89.2409 151.085 91.1351 152.501 93.5543Z" fill="url(#paint1_linear_54549_11499)"/>
<path d="M113.354 24.2687C118.831 33.5698 121.319 41.7181 122.225 52.8524C123.393 67.0892 120.671 79.1955 113.578 91.3599C110.374 96.8668 101.786 106.618 93.239 114.531C76.9382 129.587 69.2226 146.843 70.7496 164.839C70.9906 168.138 71.1367 170.782 71.0526 170.711C70.5481 170.286 66.052 161.956 64.9748 159.391C59.4767 146.615 57.9657 130.649 61.0014 118.087C64.5377 103.138 71.9554 92.0401 88.6401 76.4445C105.296 60.9686 112.927 43.6412 111.154 25.5101L110.687 20.003C110.728 19.9553 111.938 21.8495 113.354 24.2687Z" fill="url(#paint2_linear_54549_11499)"/>
<path d="M250.215 173.268H301.758V184H235.928L235.791 174.156L285.352 95.2695H236.68V84.4688H299.776L299.912 94.1074L250.215 173.268ZM372.578 184C372.077 183.043 371.667 181.858 371.348 180.445C371.074 178.987 370.869 177.483 370.733 175.934C369.457 177.21 368.021 178.417 366.426 179.557C364.877 180.696 363.168 181.699 361.299 182.564C359.385 183.43 357.357 184.114 355.215 184.615C353.073 185.117 350.795 185.367 348.379 185.367C344.46 185.367 340.905 184.798 337.715 183.658C334.571 182.519 331.905 180.969 329.717 179.01C327.484 177.096 325.752 174.817 324.522 172.174C323.337 169.485 322.744 166.591 322.744 163.492C322.744 159.436 323.542 155.882 325.137 152.828C326.778 149.775 329.079 147.223 332.041 145.172C335.003 143.167 338.558 141.663 342.705 140.66C346.898 139.658 351.569 139.156 356.719 139.156H370.528V133.346C370.528 131.113 370.117 129.107 369.297 127.33C368.477 125.553 367.315 124.026 365.811 122.75C364.307 121.52 362.461 120.562 360.274 119.879C358.132 119.195 355.716 118.854 353.028 118.854C350.521 118.854 348.265 119.173 346.26 119.811C344.3 120.449 342.637 121.292 341.27 122.34C339.903 123.388 338.832 124.641 338.057 126.1C337.328 127.512 336.963 128.993 336.963 130.543H324.248C324.294 127.854 324.977 125.211 326.299 122.613C327.666 120.016 329.626 117.669 332.178 115.572C334.684 113.521 337.738 111.858 341.338 110.582C344.984 109.306 349.108 108.668 353.711 108.668C357.904 108.668 361.8 109.192 365.401 110.24C369.001 111.243 372.123 112.77 374.766 114.82C377.364 116.917 379.414 119.514 380.918 122.613C382.422 125.712 383.174 129.335 383.174 133.482V167.867C383.174 170.328 383.402 172.949 383.858 175.729C384.313 178.463 384.951 180.855 385.772 182.906V184H372.578ZM350.225 174.361C352.686 174.361 354.987 174.042 357.129 173.404C359.271 172.766 361.231 171.923 363.008 170.875C364.74 169.827 366.244 168.642 367.52 167.32C368.796 165.953 369.798 164.54 370.528 163.082V148.111H358.77C354.395 148.111 350.567 148.499 347.285 149.273C344.05 150.003 341.475 151.142 339.561 152.691C338.194 153.785 337.145 155.084 336.416 156.588C335.733 158.092 335.391 159.801 335.391 161.715C335.391 163.538 335.687 165.224 336.28 166.773C336.918 168.323 337.852 169.645 339.082 170.738C340.313 171.878 341.862 172.766 343.731 173.404C345.599 174.042 347.764 174.361 350.225 174.361ZM410.039 79H447.842V173.062H471.973V184H410.039V173.062H435.196V90.0059H410.039V79ZM494.121 79H531.924V173.062H556.055V184H494.121V173.062H519.278V90.0059H494.121V79ZM572.666 146.334C572.666 141.002 573.441 136.057 574.99 131.5C576.54 126.897 578.773 122.91 581.69 119.537C584.561 116.165 588.07 113.521 592.217 111.607C596.364 109.648 601.035 108.668 606.231 108.668C611.472 108.668 616.166 109.648 620.313 111.607C624.505 113.521 628.06 116.165 630.977 119.537C633.848 122.91 636.058 126.897 637.608 131.5C639.157 136.057 639.932 141.002 639.932 146.334V147.838C639.932 153.17 639.157 158.115 637.608 162.672C636.058 167.229 633.848 171.194 630.977 174.566C628.06 177.939 624.528 180.582 620.381 182.496C616.234 184.41 611.563 185.367 606.367 185.367C601.127 185.367 596.41 184.41 592.217 182.496C588.07 180.582 584.561 177.939 581.69 174.566C578.773 171.194 576.54 167.229 574.99 162.672C573.441 158.115 572.666 153.17 572.666 147.838V146.334ZM585.313 147.838C585.313 151.484 585.746 154.97 586.612 158.297C587.477 161.578 588.799 164.472 590.576 166.979C592.308 169.485 594.496 171.467 597.139 172.926C599.782 174.384 602.858 175.113 606.367 175.113C609.831 175.113 612.862 174.384 615.459 172.926C618.102 171.467 620.313 169.485 622.09 166.979C623.822 164.472 625.121 161.578 625.987 158.297C626.852 154.97 627.285 151.484 627.285 147.838V146.334C627.285 142.734 626.83 139.293 625.918 136.012C625.052 132.685 623.753 129.768 622.022 127.262C620.244 124.755 618.034 122.773 615.391 121.314C612.793 119.811 609.74 119.059 606.231 119.059C602.722 119.059 599.668 119.811 597.071 121.314C594.473 122.773 592.308 124.755 590.576 127.262C588.799 129.768 587.477 132.685 586.612 136.012C585.746 139.293 585.313 142.734 585.313 146.334V147.838Z" fill="#1D1B20"/>
<defs>
<linearGradient id="paint0_linear_54549_11499" x1="64.9123" y1="183.571" x2="155.67" y2="75.9837" gradientUnits="userSpaceOnUse">
<stop stop-color="#6750A4"/>
<stop offset="1" stop-color="#7D5260"/>
</linearGradient>
<linearGradient id="paint1_linear_54549_11499" x1="84.641" y1="218.437" x2="175.399" y2="110.849" gradientUnits="userSpaceOnUse">
<stop stop-color="#6750A4"/>
<stop offset="1" stop-color="#7D5260"/>
</linearGradient>
<linearGradient id="paint2_linear_54549_11499" x1="45.4942" y1="149.151" x2="136.252" y2="41.5633" gradientUnits="userSpaceOnUse">
<stop stop-color="#6750A4"/>
<stop offset="1" stop-color="#7D5260"/>
</linearGradient>
</defs>
</svg>
